<svg xmlns="http://www.w3.org/2000/svg" xmlns:xlink="http://www.w3.org/1999/xlink" width="100%" height="100%" fill-rule="evenodd" stroke-linejoin="round" stroke-miterlimit="1.414" clip-rule="evenodd" version="1.1" viewBox="0 0 455 83" xml:space="preserve"><g><g><g><g><g><path fill="#161616" d="M195.225,195.184L156.637,214.269L156.637,70.906L195.225,51.821L195.225,195.184ZM247.612,169.273L209.025,188.359L209.025,44.996L247.585,25.924L247.612,25.924L247.612,169.273ZM261.412,162.448L261.412,19.085L300,0L300,143.363L261.412,162.448Z" transform="matrix(1,0,0,1,-78.7066,-80.0581) matrix(1,0,0,1,-56.1287,-2565.32) matrix(1,0,0,1,0,432.551) matrix(0.976968,0,0,0.969503,1.763,69.3723) matrix(0.267419,0,0,0.267419,136.209,2223.5)"/></g><g><path fill="#FF9500" d="M143.184,175.593L143.184,214.18L0,143.363L0,104.775L143.184,175.593ZM143.184,123.205L143.184,161.793L0,90.975L0,52.388L143.184,123.205ZM143.184,70.817L143.184,109.405L0,38.588L0,0L143.184,70.817Z" transform="matrix(1,0,0,1,-78.7066,-80.0581) matrix(1,0,0,1,-56.1287,-2565.32) matrix(1,0,0,1,0,432.551) matrix(0.976968,0,0,0.969503,1.763,69.3723) matrix(0.267419,0,0,0.267419,136.209,2223.5)"/></g></g><g><g><path fill="#FF9500" fill-rule="nonzero" d="M421.064,1355.01L421.064,1400.44L444.332,1400.44C455.22,1400.44 462.22,1395.52 462.22,1387.74C462.22,1381.97 458.655,1377.43 453.081,1376.27C457.813,1374.91 460.794,1371.08 460.794,1366.48C460.794,1359.48 453.989,1355.01 443.359,1355.01L421.064,1355.01ZM434.48,1365.12L442.646,1365.12C445.304,1365.12 446.989,1366.55 446.989,1368.88C446.989,1371.28 445.304,1372.83 442.646,1372.83L434.48,1372.83L434.48,1365.12ZM434.48,1382.04L442.646,1382.04C446.082,1382.04 448.22,1383.59 448.22,1386.05C448.22,1388.71 446.082,1390.4 442.646,1390.4L434.48,1390.4L434.48,1382.04Z" transform="matrix(1,0,0,1,-78.7066,-80.0581) matrix(1,0,0,1,-56.1287,-2565.32) matrix(1,0,0,1,0,432.551) matrix(1.26258,0,0,1.26258,-294.674,502.516)"/></g><g transform="matrix(1,0,0,1,-78.7066,-80.0581) matrix(1,0,0,1,-56.1287,-2565.32) matrix(1,0,0,1,0,432.551) matrix(1.26258,0,0,1.26258,-294.674,502.516)"><rect width="13.481" height="45.434" x="470.322" y="1355.01" fill="#FF9500" fill-rule="nonzero"/></g><g><path fill="#FF9500" fill-rule="nonzero" d="M529.399,1365.77L529.399,1355.01L494.465,1355.01L494.465,1365.77L505.127,1365.77L505.127,1400.44L518.673,1400.44L518.673,1365.77L529.399,1365.77Z" transform="matrix(1,0,0,1,-78.7066,-80.0581) matrix(1,0,0,1,-56.1287,-2565.32) matrix(1,0,0,1,0,432.551) matrix(1.26258,0,0,1.26258,-297.825,502.516)"/></g><g><g><path fill="#FF9500" fill-rule="nonzero" d="M559.764,1354.62C545.7,1354.62 535.33,1364.41 535.33,1377.63C535.33,1391.05 545.505,1401.03 559.31,1401.03C566.181,1401.03 573.634,1397.59 578.56,1392.28L570.782,1383.98C567.671,1387.16 563.459,1389.23 559.959,1389.23C553.801,1389.23 549.135,1384.17 549.135,1377.5C549.135,1370.82 553.801,1365.83 559.959,1365.83C563.718,1365.83 567.931,1368.23 570.782,1371.86L578.56,1362.66C573.958,1357.73 566.634,1354.62 559.764,1354.62Z" transform="matrix(1,0,0,1,-78.7066,-80.0581) matrix(1,0,0,1,-56.1287,-2565.32) matrix(1,0,0,1,0,432.551) matrix(1,0,0,1,-3.62618,0) matrix(1.26258,0,0,1.26258,-295.657,502.516)"/></g><g><path fill="#FF9500" fill-rule="nonzero" d="M606.689,1354.62C592.43,1354.62 581.93,1364.34 581.93,1377.69C581.93,1391.11 592.43,1401.03 606.689,1401.03C620.948,1401.03 631.448,1391.05 631.448,1377.69C631.448,1364.41 620.948,1354.62 606.689,1354.62ZM606.883,1365.9C612.846,1365.9 617.642,1370.89 617.642,1377.76C617.642,1384.63 612.846,1389.75 606.883,1389.75C600.921,1389.75 595.736,1384.63 595.736,1377.76C595.736,1370.89 600.856,1365.9 606.883,1365.9Z" transform="matrix(1,0,0,1,-78.7066,-80.0581) matrix(1,0,0,1,-56.1287,-2565.32) matrix(1,0,0,1,0,432.551) matrix(1,0,0,1,-3.62618,0) matrix(1.26258,0,0,1.26258,-295.657,502.516)"/></g><g transform="matrix(1,0,0,1,-78.7066,-80.0581) matrix(1,0,0,1,-56.1287,-2565.32) matrix(1,0,0,1,0,432.551) matrix(1,0,0,1,-3.62618,0) matrix(1.26258,0,0,1.26258,-295.657,502.516)"><rect width="13.481" height="45.434" x="639.096" y="1355.01" fill="#FF9500" fill-rule="nonzero"/></g><g><path fill="#FF9500" fill-rule="nonzero" d="M704.103,1400.44L704.103,1355.01L691.789,1355.01L691.789,1380.42L672.539,1355.01L661.003,1355.01L661.003,1400.44L673.382,1400.44L673.382,1375.17L692.632,1400.44L704.103,1400.44Z" transform="matrix(1,0,0,1,-78.7066,-80.0581) matrix(1,0,0,1,-56.1287,-2565.32) matrix(1,0,0,1,0,432.551) matrix(1,0,0,1,-3.62618,0) matrix(1.26258,0,0,1.26258,-295.985,502.516)"/></g></g></g><g transform="matrix(1,0,0,1,-78.7066,-80.0581) matrix(1,0,0,1,-56.1287,-2565.32) matrix(1,0,0,1,0,432.551) matrix(0.728286,0,0,0.728286,-67.9073,1275.13)"><path fill="#161616" fill-rule="nonzero" d="M440.928,1400.44L440.928,1380.82L434.068,1380.82L429.784,1391.06L425.5,1380.82L418.64,1380.82L418.64,1400.44L424.296,1400.44L424.296,1389.69L427.656,1398.54L431.912,1398.54L435.272,1389.69L435.272,1400.44L440.928,1400.44Z"/><path fill="#161616" fill-rule="nonzero" d="M458.204,1397.67L459.184,1400.44L466.1,1400.44L458.12,1380.82L451.456,1380.82L443.168,1400.44L449.832,1400.44L450.84,1397.67L458.204,1397.67ZM456.608,1393.02L452.52,1393.02L454.592,1387.28L456.608,1393.02Z"/><path fill="#161616" fill-rule="nonzero" d="M480.464,1390.11L480.464,1394.67C479.512,1395.07 478.56,1395.32 477.888,1395.32C475.34,1395.32 473.464,1393.36 473.464,1390.64C473.464,1387.98 475.312,1386.02 477.832,1386.02C479.456,1386.02 481.36,1386.84 482.676,1388.1L486.344,1383.64C484.244,1381.8 480.912,1380.62 477.86,1380.62C471.448,1380.62 466.8,1384.85 466.8,1390.64C466.8,1396.47 471.28,1400.72 477.44,1400.72C480.24,1400.72 483.852,1399.66 486.036,1398.2L486.036,1390.11L480.464,1390.11Z"/><path fill="#161616" fill-rule="nonzero" d="M502.92,1397.67L503.9,1400.44L510.816,1400.44L502.836,1380.82L496.172,1380.82L487.884,1400.44L494.548,1400.44L495.556,1397.67L502.92,1397.67ZM501.324,1393.02L497.236,1393.02L499.308,1387.28L501.324,1393.02Z"/><path fill="#161616" fill-rule="nonzero" d="M530.024,1384.88L530.024,1380.82L512.552,1380.82L512.552,1385.8L521.372,1385.8L512.216,1396.38L512.216,1400.44L530.22,1400.44L530.22,1395.46L520.868,1395.46L530.024,1384.88Z"/><rect width="6.496" height="19.628" x="533.3" y="1380.82" fill="#161616" fill-rule="nonzero"/><path fill="#161616" fill-rule="nonzero" d="M562.784,1400.44L562.784,1380.82L556.904,1380.82L556.904,1390.89L549.148,1380.82L543.716,1380.82L543.716,1400.44L549.624,1400.44L549.624,1390.42L557.352,1400.44L562.784,1400.44Z"/><path fill="#161616" fill-rule="nonzero" d="M583.308,1385.74L583.308,1380.82L566.704,1380.82L566.704,1400.44L583.56,1400.44L583.56,1395.52L573.2,1395.52L573.2,1393.08L582.384,1393.08L582.384,1388.15L573.2,1388.15L573.2,1385.74L583.308,1385.74Z"/></g></g></g></g></svg>