<svg height="130" viewBox="0 0 513 130" width="513" xmlns="http://www.w3.org/2000/svg"><g fill="#0056ff" fill-rule="evenodd"><path d="m96.0088463 62.2357152h-9.7259324c-4.8629661 0-9.8648742.8298095-11.1153512 2.2128254-.8336513-3.042635-3.1956635-10.2343176-4.8629662-14.2450637 2.5009541-.6915079 4.3071987-4.1490477 6.391327-8.9896033.8336514-1.9362222 2.3620121-6.2235715 4.0293148-11.6173335h-11.1153512v-14.3833653h14.7278404c1.1115351-4.9788572 2.0841283-10.096016 2.7788378-15.2131748l16.3951427 2.90433338c-.972593 4.14904767-1.945186 8.15979372-3.195663 12.30884142h28.760971v14.3833653h-33.4849954c-2.500954 6.7767779-5.2797918 13.4152542-7.7807459 19.2239209h8.1975716v-14.5216669h15.4225497v14.5216669h15.283608v13.4152542h-15.283608v13.0003494h19.035039v14.3833653h-19.035039v18.5324131h-15.4225497v-18.5324131h-25.7042498v-14.3833653h25.7042498zm-29.7335646-30.8412544-14.3110147 4.5639524c-1.3894189-7.6065874-4.8629662-19.3622225-8.0586296-28.07522261l13.6163052-4.01074609c3.3346054 8.7130001 7.0860364 19.9154289 8.7533391 27.5220163zm-35.5691239 69.8423022 10.142758-7.4682855c.9725932 4.0107461 3.0567216 9.8194125 4.7240243 12.5854445-21.9528187 16.181286-25.8431917 19.638826-28.0662619 22.543159l-.1389419-.829809c-.1389419.276603-.1389419.553206-.1389419.829809-1.3894189-2.904333-5.4187337-8.436397-7.91968774-10.510921 2.91777974-2.351127 6.94709454-7.468285 6.94709454-14.79827v-21.7133491h-12.36582827v-13.9684606h12.36582827v-14.3833652h-6.39132698v-9.4045081c-.69470945 1.2447143-1.66730269 2.351127-2.50095403 3.1809365-1.11153512-3.3192381-5.00190805-11.3407303-7.36392019-14.79827 6.39132696-7.8831906 11.2542931-19.6388257 14.3110147-31.53276237l13.6163053 3.8724445c-.8336514 3.04263496-1.8062446 6.08526997-2.9177797 9.26620647h18.3403295v14.1067621h-23.8980051c-2.0841284 4.1490477-4.1682568 7.8831906-6.5302689 11.4790319h27.0936686v13.830159h-9.3091066v14.3833652h13.1994796v13.9684606h-13.1994796zm35.7080658-55.8738417v56.4270487c2.3620122 1.244714 4.8629662 3.180936 8.1975716 5.117159 6.9470945 4.149047 15.5614917 5.393762 26.2600168 5.393762 8.336514 0 22.508587-.82981 31.53981-2.074524-1.389419 4.287349-3.473548 12.308841-3.61249 16.457889-6.947094.553206-19.451864.968111-28.066261.968111-11.949003 0-20.2855165-2.074524-27.7883785-6.638476-4.8629662-2.904334-9.0312229-6.361873-11.6711188-6.361873-3.3346054 0-8.7533391 8.159793-12.7826539 15.074873l-10.142758-15.351477c4.1682567-4.425651 8.753339-8.298095 13.1994795-10.787524v-43.4266987h-8.0586296v-14.79827zm79.0579354 84.2256677v-95.8430012h16.811969v95.8430012zm2.500954-120.18408093 11.949003-8.15979377c6.530269 5.67036516 14.311015 13.6918573 17.923504 19.5005241l-12.921596 9.1279049c-3.195664-5.6703652-10.698526-14.5216669-16.950911-20.46863523zm43.627754 73.29984233v9.2662065c8.197571-.5532064 17.089852-1.1064127 26.121075-1.7979207v-7.4682858zm26.121075-38.1712386h-26.121075v7.3299842h26.121075zm-26.121075 18.8090161v7.8831906h26.121075v-7.8831906zm51.547441 37.6180321-10.698525.968111v15.62808h-14.727841v-14.521667c-18.479271 1.521318-36.124891 2.766032-49.880138 3.872445l-1.389419-13.4152546c3.195663-.1383016 6.66921-.4149048 10.420641-.5532064v-48.4055562h-7.502862v-12.5854447h70.860365v12.5854447h-7.780746v44.5331117l10.559583-.6915079zm22.369645-95.28979484v106.35392184c0 7.883191-1.389419 11.755635-6.113444 14.383366-4.585082 2.489428-11.393235 2.904333-20.841283 2.904333-.555768-4.149048-2.639896-10.925826-4.585083-14.936572 5.14085.276604 10.837468.276604 12.643712.276604 1.945187-.138302 2.500955-.691508 2.500955-2.627731v-91.6939534h-65.580573v-14.65996844z"/><g transform="translate(296 8)"><path d="m36.5477459 37.2903251c.2750549 0 .5501058.0510355.8251608.1531081.2750549.1020726.5386453.2778616.790779.5273723l4.6071477 4.7973867c-2.0170698 2.6085212-4.5440994 4.576224-7.5811646 5.9031674-3.0370653 1.3269434-6.6299169 1.9904051-10.7786626 1.9904051-3.804927 0-7.2144114-.6407793-10.2285554-1.9223571s-5.56982475-3.0508091-7.66711887-5.307747c-2.09729411-2.2569379-3.70748757-4.9334673-4.83062869-8.0296685-1.12314111-3.0962013-1.68470324-6.4588749-1.68470324-10.0881218 0-3.6972952.64178529-7.0939925 1.92537514-10.1901937 1.28358984-3.0962013 3.07715052-5.76706007 5.38073587-8.01265657 2.30358534-2.2455965 5.05982399-3.99214536 8.26879859-5.23969897s6.7502542-1.87132106 10.6239449-1.87132106c1.8795423 0 3.6501821.16444778 5.3119725.49334828s3.2146816.78254955 4.6587202 1.36096077 2.773451 1.27022603 3.9882771 2.07546518 2.2921085 1.69552541 3.2318796 2.67088551l-3.9195136 5.20567496c-.2521337.3175591-.5501055.6067604-.8939242.8676125s-.8251577.3912762-1.4440313.3912762c-.4125825 0-.8022378-.0907298-1.1689778-.2721922-.36674-.1814623-.7563953-.4026162-1.1689778-.6634683-.4125824-.2608521-.8652703-.5443828-1.3580771-.8506005s-1.0772898-.5897484-1.7534666-.8506005-1.466948-.48200602-2.3723372-.66346837c-.9053893-.18146234-1.9654811-.27219215-3.1803072-.27219215-2.1087547 0-4.0341106.36858985-5.7761254 1.10578062-1.7420148.7371908-3.2376037 1.7919248-4.4868117 3.1642338s-2.2233463 3.0337986-2.9224444 4.9845188c-.699098 1.9507202-1.0486418 4.1395769-1.0486418 6.5666357 0 2.5404729.3495438 4.7973769 1.0486418 6.7707799.6990981 1.973403 1.6503155 3.6348926 2.853681 4.9845188s2.6072708 2.3760072 4.2117581 3.0791737c1.6044873.7031666 3.3235551 1.0547446 5.1572549 1.0547446 1.0543773 0 2.0170553-.0510355 2.8880627-.153108.8710074-.1020726 1.6789692-.2778616 2.4239097-.5273723.7449406-.2495108 1.4554886-.5727357 2.1316654-.9696846s1.3580736-.8902922 2.045711-1.4800448c.275055-.226828.5730268-.4139582.8939242-.5613963.3208975-.1474382.6532506-.2211562.9970693-.2211562zm55.25139 12.8270553h-11.6897776v-20.9587959h-20.3539657v20.9587959h-11.6897776v-49.57299609h11.6897776v20.72062769h20.3539657v-20.72062769h11.6897776zm54.8731911 0h-9.008005c-1.008535 0-1.839417-.2324951-2.492673-.6974924s-1.105943-1.0604116-1.358077-1.786261l-2.956826-8.6421009h-19.047461l-2.956826 8.6421009c-.229213.6351182-.676171 1.2078501-1.340887 1.718213-.664716.5103628-1.478408.7655404-2.4411.7655404h-9.0767688l19.3912778-49.57299609h11.896068zm-32.18127-18.9513787h13.683916l-4.607147-13.5755837c-.297977-.8619462-.64752-1.8769859-1.048642-3.0451498-.401122-1.1681638-.796508-2.4327105-1.186169-3.7936781-.36674 1.3836504-.744935 2.6652089-1.134596 3.8447142-.389661 1.1795052-.756395 2.2002156-1.100214 3.0621617zm48.959539 18.9513787h-11.689777v-49.57299609h11.689777zm15.403001-49.57299609c.504268 0 .928305.02268245 1.272123.06804804.343819.04536558.653251.13042478.928306.25518014s.538646.30054437.790779.5273723c.252134.22682793.538645.53304104.859543.91864852l23.792135 29.77101689c-.091685-.9526773-.160447-1.8769873-.20629-2.7729576-.045842-.8959703-.068763-1.7408917-.068763-2.5347894v-26.23251889h10.245746v49.57299609h-6.051179c-.893929 0-1.650318-.1360947-2.269192-.4082882s-1.214817-.7712075-1.787848-1.4970569l-23.620228-29.5328487c.068764.8619461.126066 1.7068675.171909 2.5347894.045842.827922.068763 1.604796.068763 2.3306453v26.5727591h-10.245746v-49.57299609z" fill-opacity=".75"/><path d="m7.16163516 70.3237961c.50770281 0 .93462832.0226824 1.28078933.068048s.65770124.1304248.93463005.2551802c.27692881.1247553.54231493.3005443.79616636.5273723.2538514.2268279.5423146.533041.8653982.9186485l23.954222 29.7710169c-.0923096-.952677-.1615407-1.8769873-.2076955-2.7729576s-.0692319-1.7408917-.0692319-2.5347895v-26.2325188h10.3155465v49.5729959h-6.0924033c-.9000186 0-1.6615614-.136095-2.2846512-.408288-.6230898-.272194-1.2230933-.771208-1.8000283-1.497057l-23.7811424-29.5328487c.0692322.8619462.1269248 1.7068675.1730796 2.5347895.0461548.8279219.0692319 1.6047959.0692319 2.3306453v26.5727589h-10.3155465v-49.5729959zm78.64738804 0v8.846245h-20.7003248v11.5681665h15.8540949v8.5060049h-15.8540949v11.8063345h20.7003248v8.846245h-32.4697403v-49.5729959zm2.8385061 0h9.8309235c1.0154056 0 1.8634872.2268245 2.5442712.6804804.680783.4536558 1.125016 1.0547408 1.332713 1.803273l6.923185 25.8582546c.230774.8392634.461545 1.7352199.692319 2.6878979.230774.952677.403852 1.950705.519239 2.994113.230774-1.066091.484621-2.069789.76155-3.011125s.542315-1.8316225.796167-2.6708859l8.169358-25.8582546c.207697-.6351182.65193-1.2078502 1.332714-1.718213.680783-.5103628 1.505788-.7655404 2.475039-.7655404h3.461592c1.015406 0 1.851949.2211539 2.509655.6634683.657706.4423145 1.113478 1.0490701 1.367329 1.8202851l8.100127 25.8582546c.253852.7938978.519238 1.6388189.796167 2.5347899.276929.89597.519238 1.854304.726934 2.875029.184619-.998043.375005-1.950706.571163-2.858017.196158-.907312.398082-1.7579041.605779-2.5518019l6.923185-25.8582546c.18462-.657801.623084-1.2362036 1.315406-1.735225s1.523096-.7485284 2.492346-.7485284h9.207837l-15.577167 49.5729959h-10.592474l-9.484764-30.7236892c-.161542-.4763387-.328851-.9980351-.501931-1.5651049-.173081-.5670699-.34039-1.1681549-.501931-1.8032731-.161542.6351182-.328851 1.2362032-.501931 1.8032731-.173081.5670698-.34039 1.0887662-.501931 1.5651049l-9.623228 30.7236892h-10.592474zm106.0632027 10.0711097c-.346161.544387-.709624.9526712-1.090402 1.2248647-.380777.2721935-.871164.4082882-1.471176.4082882-.530781 0-1.101938-.1644478-1.713489-.4933483s-1.303863-.6974903-2.076956-1.1057806c-.773092-.4082903-1.65579-.7768801-2.648118-1.1057806s-2.123104-.4933483-3.392361-.4933483c-2.192353 0-3.825055.4593197-4.898154 1.3779728s-1.60964 2.1605174-1.60964 3.7256301c0 .9980429.323078 1.8259524.969246 2.4837534.646167.657801 1.494249 1.2248623 2.54427 1.701201 1.050022.4763386 2.250029.9129758 3.600057 1.3099247s2.728882.8392567 4.136603 1.3269367c1.407722.4876801 2.786576 1.060412 4.136604 1.718213 1.350027.657801 2.550034 1.4970518 3.600056 2.5177775 1.050022 1.0207256 1.898104 2.2625899 2.544271 3.7256301.646167 1.4630398.969246 3.2266008.969246 5.2907348 0 2.290962-.403849 4.434454-1.211558 6.43054s-1.978869 3.736964-3.513516 5.222687c-1.534648 1.485723-3.426966 2.653869-5.677013 3.504474-2.250046.850604-4.80583 1.2759-7.667428 1.2759-1.569263 0-3.167349-.158777-4.794306-.476336-1.626956-.317559-3.201965-.765537-4.725074-1.343949-1.523108-.578411-2.953886-1.264555-4.292375-2.058453-1.338489-.793897-2.50388-1.678513-3.496209-2.653873l3.461593-5.375795c.253852-.408291.611546-.737186 1.073094-.986697s.957705-.374264 1.488485-.374264c.692322 0 1.390403.215483 2.094264.646456.70386.430973 1.500019.907305 2.388499 1.429009.888479.521704 1.909639.998036 3.063509 1.429009s2.515416.646456 4.08468.646456c2.123121 0 3.77313-.459319 4.950077-1.377972 1.176948-.918654 1.765413-2.376001 1.765413-4.372087 0-1.156822-.323079-2.098144-.969246-2.823994-.646168-.725849-1.494249-1.326934-2.544271-1.803273-1.050022-.476338-2.244259-.895964-3.582749-1.2588883-1.338489-.3629247-2.711574-.7655382-4.119295-1.2078527-1.407721-.4423144-2.780806-.9866933-4.119295-1.6331529-1.33849-.6464596-2.532727-1.4970516-3.582749-2.5518014-1.050022-1.0547499-1.898103-2.3703322-2.544271-3.9467863-.646167-1.5764541-.969246-3.5214744-.969246-5.8351193 0-1.859989.380772-3.6745852 1.142326-5.4438431.761554-1.7692578 1.880791-3.3456883 3.357745-4.7293387 1.476954-1.3836503 3.288502-2.4894199 5.434701-3.3173418 2.146198-.827922 4.603904-1.2418767 7.373192-1.2418767 1.546186 0 3.051964.1190828 4.517379.3572522 1.465415.2381693 2.855807.5897473 4.171219 1.0547446 1.315412.4649972 2.544265 1.0207173 3.686597 1.6671769 1.142331.6464596 2.163491 1.3779687 3.063509 2.1945493z" opacity=".5"/></g></g></svg>