<svg xmlns="http://www.w3.org/2000/svg" fill-rule="evenodd" stroke-linejoin="round" stroke-miterlimit="1.41" clip-rule="evenodd" viewBox="0 0 194 60"><path fill="url(#_Linear1)" fill-rule="nonzero" d="M.5.25L0-.25h1l-.5.5z" transform="matrix(20 0 0 -20 29.99 35)"/><path fill="url(#_Linear2)" fill-rule="nonzero" d="M1 0L0 1v-2l1 1z" transform="matrix(10 0 0 -10 9.99 30)"/><path fill="url(#_Linear3)" fill-rule="nonzero" d="M.5-.25l.5.5H0l.5-.5z" transform="matrix(20 0 0 -20 29.99 25)"/><path fill="url(#_Linear4)" fill-rule="nonzero" d="M.5-.25l.5.5H0l.5-.5z" transform="matrix(20 0 0 -20 19.99 15)"/><path fill="url(#_Linear5)" fill-rule="nonzero" d="M.5-.25l.5.5H0l.5-.5z" transform="matrix(20 0 0 -20 29.99 45)"/><path fill="url(#_Linear6)" fill-rule="nonzero" d="M.5-.25l.5.5H0l.5-.5z" transform="matrix(20 0 0 -20 9.99 45)"/><path fill="url(#_Linear7)" fill-rule="nonzero" d="M.5.25L0-.25h1l-.5.5z" transform="matrix(20 0 0 -20 29.99 15)"/><path fill="url(#_Linear8)" fill-rule="nonzero" d="M0-.25h1l-.5.5-.5-.5z" transform="matrix(20 0 0 -20 9.99 15)"/><path fill="url(#_Linear9)" fill-rule="nonzero" d="M.5.25L0-.25h1l-.5.5z" transform="matrix(20 0 0 -20 19.99 45)"/><path fill="url(#_Linear10)" fill-rule="nonzero" d="M.5.25L0-.25h1l-.5.5z" transform="matrix(20 0 0 -20 9.99 35)"/><path fill="url(#_Linear11)" fill-rule="nonzero" d="M1 .25H0l.5-.5.5.5z" transform="matrix(20 0 0 -20 9.99 25)"/><path fill-rule="nonzero" d="M61.58 33.66c.55 0 .96-.15 1.23-.45.26-.3.4-.74.4-1.32h3.74l.03.07a4.3 4.3 0 0 1-1.49 3.5 5.7 5.7 0 0 1-3.9 1.35c-2 0-3.53-.62-4.6-1.86a7.05 7.05 0 0 1-1.63-4.81v-.28c0-1.96.54-3.56 1.62-4.8 1.07-1.24 2.6-1.86 4.57-1.86 1.66 0 2.99.46 3.98 1.39a4.8 4.8 0 0 1 1.45 3.8l-.03.07h-3.74a2.6 2.6 0 0 0-.42-1.53c-.27-.39-.69-.58-1.24-.58-.78 0-1.32.32-1.63.95a5.9 5.9 0 0 0-.47 2.56v.28c0 1.1.15 1.96.47 2.58.3.62.86.94 1.66.94m14.49-6.61l-1.5-.01c-.46 0-.85.08-1.15.23-.3.16-.52.38-.66.68v8.6h-4.1V23.44h3.86l.14 1.92a4 4 0 0 1 1.1-1.6 2.4 2.4 0 0 1 1.58-.56 4.5 4.5 0 0 1 1.13.14l-.4 3.71zm7.78 3.72v.1h.08l2.17-7.43h4.36L85.24 38.5c-.4.97-.93 1.77-1.56 2.4-.64.63-1.66.95-3.05.95-.35 0-.64-.02-.87-.07-.22-.04-.58-.12-1.06-.24l.5-2.92.25.06.21.02c.65 0 1.12-.1 1.42-.29.3-.19.52-.48.67-.86l.33-.85-4.54-13.26h4.35l1.96 7.33zm15.75-.75c0-1.1-.17-2-.5-2.67-.32-.67-.83-1-1.54-1-.47 0-.86.08-1.17.25-.32.17-.58.42-.76.74v5.48c.2.28.45.5.77.63a3 3 0 0 0 1.18.2c.72 0 1.23-.3 1.54-.89a5.3 5.3 0 0 0 .47-2.49v-.25zm4.08.25c0 1.98-.45 3.56-1.34 4.75a4.41 4.41 0 0 1-3.75 1.79 3.59 3.59 0 0 1-2.96-1.42v6.2h-4.1V23.44h3.83l.15 1.44a3.44 3.44 0 0 1 3.05-1.68c1.63 0 2.88.62 3.78 1.87a8.38 8.38 0 0 1 1.34 4.95v.25zm6.65-10.09v3.26h2.22v2.83h-2.22v6.02c0 .46.1.8.28 1a1 1 0 0 0 .77.32 6.03 6.03 0 0 0 1.2-.12l.28 3.03a10.83 10.83 0 0 1-2.51.3c-1.35-.01-2.37-.37-3.06-1.1-.7-.71-1.05-1.85-1.05-3.4v-6.05h-1.84v-2.83h1.84v-3.26h4.09zm7.33 9.95c0 1.1.17 1.96.52 2.59.34.62.92.93 1.75.93.8 0 1.37-.31 1.72-.94.35-.63.52-1.5.52-2.58v-.26a5.4 5.4 0 0 0-.52-2.56c-.35-.64-.93-.96-1.75-.96-.8 0-1.38.32-1.72.97-.35.64-.52 1.5-.52 2.55v.26zm-4.1-.26a6.9 6.9 0 0 1 1.68-4.81c1.11-1.24 2.67-1.87 4.67-1.87s3.56.63 4.67 1.87a6.93 6.93 0 0 1 1.68 4.81v.26c0 1.98-.56 3.59-1.68 4.82-1.11 1.24-2.66 1.86-4.65 1.86-2.01 0-3.58-.62-4.7-1.86a6.92 6.92 0 0 1-1.66-4.82v-.26zm18.27-6.43l.16 1.84c.43-.65.96-1.17 1.59-1.53a4.1 4.1 0 0 1 2.1-.55c1.29 0 2.3.41 3.02 1.24.72.84 1.08 2.16 1.08 3.98v8.13h-4.1v-8.14c0-.75-.15-1.29-.46-1.6-.31-.3-.77-.46-1.38-.46a2.24 2.24 0 0 0-1.77.78v9.42H128V23.44h3.84zm15.88 2.91c-.59 0-1.03.2-1.33.63-.3.42-.47.98-.54 1.68l.04.06h3.53v-.31c0-.67-.14-1.17-.41-1.53-.28-.36-.7-.53-1.29-.53m.3 10.46c-1.94 0-3.48-.6-4.63-1.82a6.35 6.35 0 0 1-1.73-4.56v-.46c0-2 .52-3.63 1.57-4.89 1.05-1.26 2.54-1.9 4.49-1.88 1.78 0 3.17.53 4.18 1.6a6.06 6.06 0 0 1 1.52 4.33v2.15h-7.5l-.02.07c.1.67.36 1.23.83 1.66.46.43 1.07.65 1.84.65a7.64 7.64 0 0 0 3.62-.82l.97 2.5a7.4 7.4 0 0 1-2.22 1.05c-.91.28-1.89.42-2.93.42m18.4-5.77h.07l1.42-7.6h3.78l-3.08 13.11h-3.46l-2.14-6.95h-.07l-2.14 6.95h-3.46l-3.09-13.11h3.78l1.44 7.66h.08l2.13-7.66h2.58l2.16 7.6zm13.57 1.83c0-.32-.18-.61-.55-.87a5.94 5.94 0 0 0-2-.68 7.87 7.87 0 0 1-3.46-1.4 3.15 3.15 0 0 1-1.16-2.58 3.7 3.7 0 0 1 1.45-2.94c.97-.8 2.29-1.2 3.94-1.2 1.75 0 3.14.39 4.17 1.17a3.44 3.44 0 0 1 1.48 3.02l-.02.07h-3.98c0-.51-.13-.9-.4-1.17-.26-.27-.68-.4-1.26-.4-.43 0-.79.11-1.08.35a1.09 1.09 0 0 0 .07 1.78 5.7 5.7 0 0 0 2.03.65 8.2 8.2 0 0 1 3.56 1.42 3.23 3.23 0 0 1 1.15 2.66c0 1.18-.52 2.15-1.57 2.91a6.88 6.88 0 0 1-4.15 1.15c-1.78 0-3.2-.46-4.23-1.36-1.04-.9-1.54-1.92-1.49-3.03l.03-.07h3.7c.02.62.2 1.07.57 1.34.36.28.87.41 1.53.41.55 0 .97-.1 1.25-.32.28-.21.42-.52.42-.91"/><defs><linearGradient id="_Linear1" x2="1" gradientTransform="scale(1 -1)" gradientUnits="userSpaceOnUse"><stop offset="0" stop-color="#210622"/><stop offset="1" stop-color="#150430"/></linearGradient><linearGradient id="_Linear2" x2="1" gradientTransform="scale(1 -1)" gradientUnits="userSpaceOnUse"><stop offset="0" stop-color="#eb6f9f"/><stop offset="1" stop-color="#fa6f8d"/></linearGradient><linearGradient id="_Linear3" x2="1" gradientTransform="scale(1 -1)" gradientUnits="userSpaceOnUse"><stop offset="0" stop-color="#210622"/><stop offset="1" stop-color="#150430"/></linearGradient><linearGradient id="_Linear4" x2="1" gradientTransform="scale(1 -1)" gradientUnits="userSpaceOnUse"><stop offset="0" stop-color="#930046"/><stop offset="1" stop-color="#59008a"/></linearGradient><linearGradient id="_Linear5" x2="1" gradientTransform="scale(1 -1)" gradientUnits="userSpaceOnUse"><stop offset="0" stop-color="#460045"/><stop offset="1" stop-color="#29006e"/></linearGradient><linearGradient id="_Linear6" x2="1" gradientTransform="scale(1 -1)" gradientUnits="userSpaceOnUse"><stop offset="0" stop-color="#db0035"/><stop offset="1" stop-color="#9d0074"/></linearGradient><linearGradient id="_Linear7" x2="1" gradientTransform="scale(1 -1)" gradientUnits="userSpaceOnUse"><stop offset="0" stop-color="#460045"/><stop offset="1" stop-color="#29006e"/></linearGradient><linearGradient id="_Linear8" x2="1" gradientTransform="scale(1 -1)" gradientUnits="userSpaceOnUse"><stop offset="0" stop-color="#db0035"/><stop offset="1" stop-color="#9d0074"/></linearGradient><linearGradient id="_Linear9" x2="1" gradientTransform="scale(1 -1)" gradientUnits="userSpaceOnUse"><stop offset="0" stop-color="#930046"/><stop offset="1" stop-color="#59008a"/></linearGradient><linearGradient id="_Linear10" x2="1" gradientTransform="scale(1 -1)" gradientUnits="userSpaceOnUse"><stop offset="0" stop-color="#f63362"/><stop offset="1" stop-color="#c0359d"/></linearGradient><linearGradient id="_Linear11" x2="1" gradientTransform="scale(1 -1)" gradientUnits="userSpaceOnUse"><stop offset="0" stop-color="#f63362"/><stop offset="1" stop-color="#c0359d"/></linearGradient></defs></svg>